<?xml version="1.0" encoding="UTF-8" standalone="no"?>
<svg width="500px" height="500px" viewBox="0 0 500 500" version="1.1" xmlns="http://www.w3.org/2000/svg" xmlns:xlink="http://www.w3.org/1999/xlink">
    <!-- Generator: Sketch 43.2 (39069) - http://www.bohemiancoding.com/sketch -->
    <title>1024</title>
    <desc>Created with Sketch.</desc>
    <defs></defs>
    <g id="Page-1" stroke="none" stroke-width="1" fill="none" fill-rule="evenodd" stroke-opacity="0.05">
        <g id="1024" stroke="#393939" stroke-width="5">
            <polygon id="Triangle" transform="translate(33.553780, 87.553780) rotate(-21.000000) translate(-33.553780, -87.553780) " points="33.5537802 44.5537802 76.5537802 130.55378 -9.44621983 130.55378"></polygon>
            <polygon id="Triangle-Copy" transform="translate(126.976989, 242.976989) rotate(202.000000) translate(-126.976989, -242.976989) " points="126.976989 199.976989 169.976989 285.976989 83.9769893 285.976989"></polygon>
            <polygon id="Triangle-Copy-10" transform="translate(65.239734, 159.397060) rotate(271.000000) translate(-65.239734, -159.397060) " points="65.2397344 133.967456 90.6693384 184.826664 39.8101304 184.826664"></polygon>
            <polygon id="Triangle-Copy-3" transform="translate(227.482051, 146.482051) rotate(202.000000) translate(-227.482051, -146.482051) " points="227.482051 119.993878 253.970223 172.970223 200.993878 172.970223"></polygon>
            <polygon id="Triangle-Copy-5" transform="translate(108.887325, 82.887325) rotate(-55.000000) translate(-108.887325, -82.887325) " points="108.887325 39.8873247 151.887325 125.887325 65.8873247 125.887325"></polygon>
            <polygon id="Triangle-Copy-2" transform="translate(170.919866, 146.919866) rotate(7.000000) translate(-170.919866, -146.919866) " points="170.919866 103.919866 213.919866 189.919866 127.919866 189.919866"></polygon>
            <polygon id="Triangle-Copy-4" transform="translate(210.540161, 398.540161) rotate(132.000000) translate(-210.540161, -398.540161) " points="210.540161 362.045749 247.034573 435.034573 174.045749 435.034573"></polygon>
            <polygon id="Triangle-Copy-9" transform="translate(181.125450, 276.125450) rotate(-83.000000) translate(-181.125450, -276.125450) " points="181.12545 241.914287 215.336612 310.336612 146.914287 310.336612"></polygon>
            <polygon id="Triangle-Copy-8" transform="translate(210.798634, 75.798634) rotate(-112.000000) translate(-210.798634, -75.798634) " points="210.798634 45.2264063 241.370861 106.370861 180.226406 106.370861"></polygon>
            <polygon id="Triangle-Copy-7" transform="translate(246.919866, 217.919866) rotate(-83.000000) translate(-246.919866, -217.919866) " points="246.919866 174.919866 289.919866 260.919866 203.919866 260.919866"></polygon>
            <polygon id="Triangle-Copy-6" transform="translate(121.482313, 322.482313) rotate(-57.000000) translate(-121.482313, -322.482313) " points="121.482313 279.482313 164.482313 365.482313 78.4823129 365.482313"></polygon>
            <polygon id="Triangle-Copy-23" transform="translate(336.553780, 207.553780) rotate(-21.000000) translate(-336.553780, -207.553780) " points="336.55378 164.55378 379.55378 250.55378 293.55378 250.55378"></polygon>
            <polygon id="Triangle-Copy-22" transform="translate(509.976989, 332.976989) rotate(202.000000) translate(-509.976989, -332.976989) " points="509.976989 289.976989 552.976989 375.976989 466.976989 375.976989"></polygon>
            <polygon id="Triangle-Copy-21" transform="translate(462.887325, 175.887325) rotate(-55.000000) translate(-462.887325, -175.887325) " points="462.887325 132.887325 505.887325 218.887325 419.887325 218.887325"></polygon>
            <polygon id="Triangle-Copy-20" transform="translate(448.874091, 281.248028) rotate(29.000000) translate(-448.874091, -281.248028) " points="448.874091 251.171632 478.950486 311.324423 418.797695 311.324423"></polygon>
            <polygon id="Triangle-Copy-32" points="427.021143 195 446.156722 233.27116 407.885563 233.27116"></polygon>
            <polygon id="Triangle-Copy-36" transform="translate(472.758443, 114.967397) rotate(24.000000) translate(-472.758443, -114.967397) " points="472.758443 90.2442717 497.481569 139.690523 448.035318 139.690523"></polygon>
            <polygon id="Triangle-Copy-37" transform="translate(462.361583, 51.152870) rotate(203.000000) translate(-462.361583, -51.152870) " points="462.361583 21.032576 492.481878 81.273165 432.241289 81.273165"></polygon>
            <polygon id="Triangle-Copy-39" transform="translate(-37.638417, 51.152870) rotate(203.000000) translate(37.638417, -51.152870) " points="-37.638417 21.032576 -7.51812247 81.273165 -67.7587115 81.273165"></polygon>
            <polygon id="Triangle-Copy-33" transform="translate(46.781576, 364.140382) rotate(24.000000) translate(-46.781576, -364.140382) " points="46.7815761 338.553747 72.3682109 389.727017 21.1949412 389.727017"></polygon>
            <polygon id="Triangle-Copy-35" transform="translate(29.694751, 416.694751) rotate(85.000000) translate(-29.694751, -416.694751) " points="29.6947512 401.284455 45.1050475 432.105047 14.284455 432.105047"></polygon>
            <polygon id="Triangle-Copy-19" transform="translate(339.125358, 299.125358) rotate(-76.000000) translate(-339.125358, -299.125358) " points="339.125358 256.125358 382.125358 342.125358 296.125358 342.125358"></polygon>
            <polygon id="Triangle-Copy-17" transform="translate(367.919866, 146.919866) rotate(-83.000000) translate(-367.919866, -146.919866) " points="367.919866 103.919866 410.919866 189.919866 324.919866 189.919866"></polygon>
            <polygon id="Triangle-Copy-14" transform="translate(530.976989, 242.976989) rotate(-112.000000) translate(-530.976989, -242.976989) " points="530.976989 199.976989 573.976989 285.976989 487.976989 285.976989"></polygon>
            <polygon id="Triangle-Copy-26" transform="translate(10.089665, 332.976989) rotate(202.000000) translate(-10.089665, -332.976989) " points="10.0896646 289.976989 53.0896646 375.976989 -32.9103354 375.976989"></polygon>
            <polygon id="Triangle-Copy-25" transform="translate(-37.000000, 175.887325) rotate(-55.000000) translate(37.000000, -175.887325) " points="-37 132.887325 6 218.887325 -80 218.887325"></polygon>
            <polygon id="Triangle-Copy-15" transform="translate(31.089665, 242.976989) rotate(-112.000000) translate(-31.089665, -242.976989) " points="31.0896646 199.976989 74.0896646 285.976989 -11.9103354 285.976989"></polygon>
            <polygon id="Triangle-Copy-34" transform="translate(416.273864, 375.793396) rotate(214.000000) translate(-416.273864, -375.793396) " points="416.273864 332.793396 459.273864 418.793396 373.273864 418.793396"></polygon>
            <polygon id="Triangle-Copy-30" transform="translate(483.357906, 453.357906) rotate(142.000000) translate(-483.357906, -453.357906) " points="483.357906 410.357906 526.357906 496.357906 440.357906 496.357906"></polygon>
            <polygon id="Triangle-Copy-38" transform="translate(-16.642094, 453.357906) rotate(142.000000) translate(16.642094, -453.357906) " points="-16.6420942 410.357906 26.3579058 496.357906 -59.6420942 496.357906"></polygon>
            <polygon id="Triangle-Copy-28" transform="translate(259.579778, 339.466497) rotate(-151.000000) translate(-259.579778, -339.466497) " points="259.579778 296.466497 302.579778 382.466497 216.579778 382.466497"></polygon>
            <polygon id="Triangle-Copy-27" transform="translate(309.186659, 400.186659) rotate(-106.000000) translate(-309.186659, -400.186659) " points="309.186659 357.186659 352.186659 443.186659 266.186659 443.186659"></polygon>
            <polygon id="Triangle-Copy-31" transform="translate(344.315949, 463.315949) rotate(193.000000) translate(-344.315949, -463.315949) " points="344.315949 443.041188 364.590711 483.590711 324.041188 483.590711"></polygon>
            <polygon id="Triangle-Copy-60" transform="translate(81.976989, 421.976989) rotate(-112.000000) translate(-81.976989, -421.976989) " points="81.9769893 378.976989 124.976989 464.976989 38.9769893 464.976989"></polygon>
            <polygon id="Triangle-Copy-49" transform="translate(288.976989, 518.976989) rotate(-112.000000) translate(-288.976989, -518.976989) " points="288.976989 475.976989 331.976989 561.976989 245.976989 561.976989"></polygon>
            <polygon id="Triangle-Copy-48" transform="translate(57.693910, 495.693910) rotate(-34.000000) translate(-57.693910, -495.693910) " points="57.6939105 452.69391 100.69391 538.69391 14.6939105 538.69391"></polygon>
            <polygon id="Triangle-Copy-24" transform="translate(212.482313, 459.482313) rotate(-57.000000) translate(-212.482313, -459.482313) " points="212.482313 416.482313 255.482313 502.482313 169.482313 502.482313"></polygon>
            <polygon id="Triangle-Copy-58" transform="translate(154.553780, 499.553780) rotate(-21.000000) translate(-154.553780, -499.553780) " points="154.55378 456.55378 197.55378 542.55378 111.55378 542.55378"></polygon>
            <polygon id="Triangle-Copy-52" transform="translate(293.062497, 92.062497) rotate(-36.000000) translate(-293.062497, -92.062497) " points="293.062497 49.0624966 336.062497 135.062497 250.062497 135.062497"></polygon>
            <polygon id="Triangle-Copy-50" transform="translate(392.565970, 67.565970) rotate(-98.000000) translate(-392.565970, -67.565970) " points="392.56597 24.5659703 435.56597 110.56597 349.56597 110.56597"></polygon>
            <polygon id="Triangle-Copy-62" transform="translate(392.579778, 499.579778) rotate(-140.000000) translate(-392.579778, -499.579778) " points="392.579778 456.579778 435.579778 542.579778 349.579778 542.579778"></polygon>
            <polygon id="Triangle-Copy-53" transform="translate(288.976989, 18.976989) rotate(-112.000000) translate(-288.976989, -18.976989) " points="288.976989 -24.0230107 331.976989 61.9769893 245.976989 61.9769893"></polygon>
            <polygon id="Triangle-Copy-51" transform="translate(57.693910, -4.306090) rotate(-34.000000) translate(-57.693910, 4.306090) " points="57.6939105 -47.3060895 100.69391 38.6939105 14.6939105 38.6939105"></polygon>
            <polygon id="Triangle-Copy-29" transform="translate(212.482313, -40.517687) rotate(-57.000000) translate(-212.482313, 40.517687) " points="212.482313 -83.5176871 255.482313 2.48231293 169.482313 2.48231293"></polygon>
            <polygon id="Triangle-Copy-59" transform="translate(154.553780, -0.446220) rotate(-21.000000) translate(-154.553780, 0.446220) " points="154.55378 -43.4462198 197.55378 42.5537802 111.55378 42.5537802"></polygon>
            <polygon id="Triangle-Copy-64" transform="translate(392.579778, -0.420222) rotate(-140.000000) translate(-392.579778, 0.420222) " points="392.579778 -43.4202217 435.579778 42.5797783 349.579778 42.5797783"></polygon>
        </g>
    </g>
</svg>